<?xml version="1.0" standalone="no"?>
<!DOCTYPE svg PUBLIC "-//W3C//DTD SVG 20010904//EN"
 "http://www.w3.org/TR/2001/REC-SVG-20010904/DTD/svg10.dtd">
<svg version="1.0" xmlns="http://www.w3.org/2000/svg"
 width="656.000000pt" height="673.000000pt" viewBox="0 0 656.000000 673.000000"
 preserveAspectRatio="xMidYMid meet">

<g transform="translate(0.000000,673.000000) scale(0.100000,-0.100000)"
fill="#000000" stroke="none">
<path d="M3000 6315 c-601 -60 -1162 -294 -1623 -679 -129 -108 -332 -313
-430 -436 -158 -197 -339 -502 -424 -715 -77 -191 -109 -288 -146 -445 -69
-289 -82 -402 -81 -735 0 -300 10 -405 59 -632 118 -547 383 -1048 770 -1451
180 -188 359 -334 580 -473 942 -592 2140 -607 3105 -41 481 283 895 724 1150
1227 89 176 131 276 184 440 48 150 90 331 117 505 20 124 23 186 23 425 1
244 -2 300 -22 435 -35 229 -94 451 -187 700 -18 49 -151 321 -187 385 -212
369 -559 742 -918 987 -572 390 -1284 571 -1970 503z m650 -51 c738 -94 1395
-447 1880 -1010 204 -236 401 -563 510 -844 229 -589 270 -1224 119 -1825
-303 -1207 -1325 -2101 -2549 -2231 -173 -18 -467 -18 -640 0 -944 100 -1791
661 -2258 1498 -412 735 -493 1594 -229 2408 61 188 186 453 297 631 295 470
740 870 1224 1099 242 115 514 207 715 241 198 34 248 41 351 49 146 11 431 3
580 -16z"/>
<path d="M2950 6110 c-532 -65 -1003 -263 -1430 -598 -107 -84 -347 -321 -432
-427 -409 -510 -630 -1132 -630 -1780 0 -945 469 -1822 1257 -2350 214 -143
497 -282 695 -340 411 -121 759 -159 1140 -125 197 18 495 83 660 144 25 9 70
25 101 36 31 10 65 23 75 29 11 6 78 39 149 74 343 168 622 385 895 697 144
163 306 414 409 631 96 205 190 499 221 694 6 39 16 95 21 125 31 179 31 591
0 770 -5 30 -15 87 -21 125 -29 175 -86 366 -168 565 -228 554 -617 1011
-1132 1332 -326 203 -735 346 -1135 398 -165 21 -501 21 -675 0z m670 -21
c500 -66 935 -241 1329 -531 53 -39 114 -87 136 -107 23 -20 72 -63 109 -96
150 -132 347 -373 481 -590 191 -309 342 -731 384 -1075 57 -459 19 -864 -119
-1280 -40 -119 -57 -157 -74 -163 -9 -4 -14 -12 -11 -19 2 -7 -6 -21 -20 -31
-24 -17 -24 -17 -22 9 1 15 -4 29 -12 32 -9 3 -11 -1 -7 -16 4 -11 1 -30 -6
-41 -19 -30 -1 -37 32 -12 35 25 35 24 14 -29 -9 -22 -23 -40 -31 -40 -10 0
-13 -6 -9 -16 6 -17 -50 -133 -106 -219 -24 -36 -42 -52 -63 -56 -19 -4 -23
-7 -10 -8 15 -1 17 -3 6 -10 -7 -5 -10 -14 -6 -20 7 -13 -7 -38 -69 -121 -90
-122 -149 -190 -162 -190 -8 0 -14 -7 -14 -17 0 -30 -13 -5 -17 34 -4 42 -13
58 -13 25 0 -32 -47 -31 -53 0 -2 13 -5 3 -6 -21 -1 -40 0 -43 13 -26 20 28
46 12 46 -28 0 -30 -12 -45 -95 -125 -52 -50 -125 -116 -161 -146 -58 -48 -69
-54 -92 -45 -30 11 -39 5 -23 -15 13 -16 7 -36 -10 -36 -6 0 -26 -16 -46 -35
-22 -21 -46 -35 -61 -35 -14 0 -22 -3 -19 -6 3 -4 -4 -15 -17 -25 -17 -13 -33
-17 -60 -12 -29 4 -36 2 -36 -10 0 -9 5 -19 11 -23 13 -7 -7 -20 -153 -97 -59
-31 -114 -57 -122 -57 -8 0 -18 9 -21 20 -4 11 -11 18 -16 14 -5 -3 -7 -13 -5
-22 10 -31 -37 -66 -48 -36 -7 19 -26 18 -26 -1 0 -20 -29 -19 -37 1 -3 9 -1
25 5 35 15 23 15 39 1 39 -17 0 -39 -66 -33 -98 7 -32 9 -31 -126 -76 -230
-77 -715 -159 -754 -127 -10 8 -16 9 -21 1 -10 -16 -65 -12 -71 5 -6 14 -8 13
-19 -1 -26 -36 -427 4 -670 66 -207 52 -219 57 -234 91 -19 42 -51 55 -100 40
-34 -10 -47 -9 -93 10 -144 56 -506 263 -547 313 -10 12 5 13 100 8 93 -4 111
-3 107 9 -4 11 -33 14 -132 16 -122 2 -129 3 -164 29 -65 48 -102 87 -102 109
0 29 -19 45 -51 45 -21 0 -48 21 -123 97 -158 163 -336 391 -336 431 0 11 -8
23 -17 25 -14 4 -12 5 5 6 29 1 29 21 -1 21 -31 0 -45 17 -102 122 l-47 88 46
0 c24 0 47 4 50 9 3 4 -5 31 -19 58 -34 71 -64 78 -79 21 -13 -57 -29 -35 -96
132 -39 98 -91 253 -104 313 -5 22 0 36 25 67 40 49 44 114 12 158 -19 25 -71
66 -95 74 -16 6 -37 242 -37 428 -1 455 95 858 300 1270 341 683 985 1217
1719 1427 110 32 154 43 215 53 28 5 91 17 140 26 175 32 571 39 765 13z
m-3024 -3335 c8 -32 -12 -104 -29 -104 -15 0 -52 164 -41 182 9 15 61 -42 70
-78z m247 -662 l19 -32 -34 0 c-44 0 -48 5 -35 41 14 35 26 33 50 -9z m1497
-1407 c19 -20 20 -25 7 -25 -21 0 -67 21 -67 31 0 7 16 16 31 18 3 1 16 -10
29 -24z"/>
<path d="M4670 2832 c0 -5 15 -19 33 -31 l32 -21 -85 0 c-54 0 -91 -5 -102
-14 -28 -21 -11 -26 85 -26 l89 0 -16 -25 c-32 -49 -6 -49 40 1 40 42 42 63
11 92 -25 24 -87 41 -87 24z"/>
<path d="M2504 2803 c-9 -34 15 -78 41 -78 24 0 61 64 52 89 -11 28 -27 8 -27
-35 0 -32 -3 -39 -19 -39 -23 0 -34 28 -25 64 4 16 2 26 -5 26 -6 0 -14 -12
-17 -27z"/>
<path d="M3047 2773 c-6 -9 -12 -152 -9 -205 1 -21 7 -38 12 -38 6 0 10 45 10
116 l0 116 121 -4 c110 -4 117 -3 77 9 -46 14 -204 18 -211 6z"/>
<path d="M2283 2705 c0 -30 4 -55 8 -55 5 0 9 5 9 12 0 9 3 9 12 0 7 -7 18
-12 26 -12 11 0 12 3 3 14 -9 11 -10 20 -1 36 17 32 4 60 -29 60 -27 0 -28 -1
-28 -55z m44 29 c3 -8 -2 -23 -11 -32 -15 -15 -16 -14 -16 16 0 33 16 43 27
16z"/>
<path d="M3398 2753 c34 -2 90 -2 125 0 34 2 6 3 -63 3 -69 0 -97 -1 -62 -3z"/>
<path d="M2061 2737 c-6 -8 -17 -30 -26 -50 -13 -31 -20 -36 -52 -39 -48 -4
-57 -28 -11 -28 l35 0 -5 -54 c-4 -44 -1 -57 16 -74 22 -22 53 -20 73 4 16 20
3 30 -17 13 -14 -11 -18 -10 -31 6 -16 23 -10 94 10 107 7 4 38 8 70 8 69 0
75 16 10 25 -27 3 -54 7 -61 8 -9 2 -8 12 6 39 18 35 19 48 2 48 -4 0 -13 -6
-19 -13z"/>
<path d="M3633 2743 c15 -2 39 -2 55 0 15 2 2 4 -28 4 -30 0 -43 -2 -27 -4z"/>
<path d="M3100 2731 c0 -5 5 -11 12 -13 8 -3 5 -15 -11 -36 l-22 -32 33 1 c22
0 28 3 16 7 -15 6 -16 10 -5 32 8 14 12 31 9 38 -4 14 -32 17 -32 3z"/>
<path d="M5409 2726 c-5 -6 -9 -16 -9 -24 0 -15 33 -65 62 -94 9 -9 24 -28 33
-41 15 -24 14 -27 -23 -83 -21 -33 -48 -79 -61 -103 -31 -62 -19 -71 101 -78
112 -7 138 2 138 48 0 33 -15 69 -30 69 -5 0 -10 -17 -12 -37 l-3 -38 -77 -3
c-73 -3 -78 -2 -78 18 0 30 26 77 71 132 22 26 39 52 39 60 0 7 -25 38 -56 69
l-56 56 44 8 c24 4 59 8 78 9 34 1 35 -1 38 -36 4 -49 27 -50 35 -2 11 66 1
72 -119 76 -58 2 -109 -1 -115 -6z"/>
<path d="M795 2720 c-11 -5 -33 -9 -48 -9 -18 -1 -27 -6 -24 -13 2 -7 15 -12
28 -10 13 1 53 6 88 10 79 9 97 32 24 31 -26 0 -57 -4 -68 -9z"/>
<path d="M1057 2724 c-4 -4 -7 -38 -7 -74 0 -82 17 -105 48 -66 10 14 25 39
32 56 18 44 30 37 30 -20 0 -42 3 -50 19 -50 11 0 28 15 40 35 11 19 24 35 30
35 12 0 21 -25 21 -60 0 -30 16 -48 30 -34 12 13 -6 125 -24 142 -13 13 -18
11 -45 -19 l-31 -33 0 32 c0 26 -5 33 -27 38 -22 6 -31 2 -53 -24 -34 -41 -42
-40 -38 4 3 35 -10 53 -25 38z"/>
<path d="M1458 2707 c-56 -45 -75 -143 -37 -191 17 -21 29 -26 66 -26 48 0
118 32 128 58 9 25 -2 24 -30 -2 -34 -32 -113 -37 -136 -9 -20 23 -16 94 7
132 23 39 67 41 72 3 2 -15 9 -22 20 -20 24 5 27 36 6 59 -23 25 -63 24 -96
-4z"/>
<path d="M2402 2690 c-11 -18 -10 -20 18 -20 23 0 30 4 30 20 0 12 -7 20 -18
20 -9 0 -23 -9 -30 -20z"/>
<path d="M2515 2690 c3 -5 26 -10 50 -10 24 0 47 5 50 10 4 6 -15 10 -50 10
-35 0 -54 -4 -50 -10z"/>
<path d="M2935 2690 c-3 -4 -2 -15 1 -24 5 -13 9 -14 20 -5 8 6 14 15 14 19 0
12 -29 20 -35 10z"/>
<path d="M3160 2678 c0 -18 2 -19 17 -7 12 11 17 11 20 2 4 -10 9 -10 24 0 28
17 24 23 -21 24 -34 2 -40 -1 -40 -19z"/>
<path d="M1748 2679 c-9 -5 -19 -24 -22 -43 -4 -19 -15 -45 -25 -57 -53 -68
-49 -139 6 -118 18 7 30 6 37 -1 13 -13 112 -13 137 0 34 19 21 70 -40 153
-43 58 -71 78 -93 66z m75 -93 c34 -44 44 -81 22 -89 -8 -4 -42 -4 -75 0 l-58
6 18 41 c10 22 21 49 24 59 9 27 41 20 69 -17z"/>
<path d="M3361 2671 c-14 -25 -14 -111 -1 -111 5 0 9 20 8 45 0 25 5 51 11 59
8 9 8 16 2 20 -6 4 -15 -2 -20 -13z"/>
<path d="M2756 2657 c-10 -37 -7 -44 20 -50 19 -3 24 -1 20 10 -3 8 -6 23 -6
33 0 27 -27 33 -34 7z"/>
<path d="M3620 2623 c0 -27 -5 -54 -12 -61 -7 -7 -8 -12 -4 -12 28 0 51 100
26 115 -6 4 -10 -13 -10 -42z"/>
<path d="M3856 2631 c-4 -26 -14 -44 -31 -55 -33 -22 -32 -59 1 -93 25 -25 26
-30 21 -101 -3 -41 -8 -77 -12 -80 -3 -3 -25 13 -49 37 -38 37 -44 40 -56 26
-11 -13 -7 -22 27 -63 45 -53 66 -61 93 -37 20 18 40 93 40 149 0 28 5 34 36
46 60 24 71 70 27 112 -16 14 -36 28 -45 31 -12 4 -18 17 -18 37 0 45 -26 38
-34 -9z m74 -126 c-16 -19 -30 -4 -30 35 l0 24 22 -21 c18 -19 19 -24 8 -38z
m-70 19 c0 -8 -4 -14 -10 -14 -5 0 -10 9 -10 21 0 11 5 17 10 14 6 -3 10 -13
10 -21z"/>
<path d="M5674 2659 c-7 -12 21 -28 64 -35 35 -5 42 -10 42 -30 0 -12 -4 -26
-10 -29 -5 -3 -10 -27 -11 -53 -2 -74 -11 -95 -46 -104 -35 -9 -50 -25 -37
-38 5 -4 52 -10 104 -12 77 -2 95 0 95 11 0 8 -20 21 -44 30 l-43 16 6 50 c3
27 6 74 6 103 l0 52 38 0 c43 0 88 25 62 34 -24 8 -221 12 -226 5z"/>
<path d="M2524 2638 c21 -29 21 -78 1 -78 -8 0 -15 -4 -15 -10 0 -5 13 -10 29
-10 17 0 33 5 36 10 3 6 1 10 -4 10 -16 0 -14 87 2 93 6 3 -5 6 -26 6 -37 1
-38 1 -23 -21z"/>
<path d="M3226 2651 c-4 -6 -35 -11 -71 -11 -35 0 -67 -4 -70 -10 -4 -6 26
-10 82 -10 48 0 99 -3 113 -6 23 -5 22 -4 -5 12 -16 9 -33 21 -36 27 -4 5 -9
5 -13 -2z"/>
<path d="M3390 2615 c0 -43 2 -45 28 -45 l27 1 -24 13 c-23 13 -23 14 -5 24
10 6 13 12 7 12 -7 0 -13 6 -13 14 0 8 6 17 13 19 6 3 2 6 -10 6 -21 1 -23 -4
-23 -44z"/>
<path d="M3524 2631 c3 -18 6 -40 6 -48 0 -13 3 -13 15 -3 12 10 15 10 15 -4
0 -9 7 -16 15 -16 19 0 19 24 0 40 -10 8 -13 21 -9 39 6 25 6 25 -8 7 -15 -19
-15 -19 -27 0 -11 16 -12 14 -7 -15z"/>
<path d="M4084 2626 l-29 -25 51 6 c61 7 72 -5 48 -46 -19 -32 -34 -32 -34 0
0 10 -4 19 -10 19 -15 0 -22 -45 -16 -102 3 -29 6 -64 7 -78 1 -37 17 -50 58
-50 26 0 44 7 58 23 46 50 38 93 -21 117 l-36 14 20 33 c36 61 24 97 -37 109
-23 4 -36 0 -59 -20z m99 -168 c30 -14 32 -20 17 -49 -13 -23 -46 -25 -54 -3
-9 23 -7 64 2 64 4 0 20 -6 35 -12z"/>
<path d="M4435 2641 c-3 -6 -1 -28 6 -50 6 -22 9 -47 6 -55 -6 -14 -10 -14
-41 0 -44 22 -81 12 -101 -26 -51 -99 31 -171 114 -100 19 16 37 27 41 25 4
-3 10 -23 14 -45 4 -27 11 -40 22 -40 12 0 14 10 9 63 -3 34 -10 80 -15 102
-6 22 -11 60 -12 85 -2 32 -8 46 -20 48 -9 2 -19 -2 -23 -7z m-24 -140 c27
-22 21 -41 -23 -74 -37 -28 -68 -15 -68 28 0 60 46 83 91 46z"/>
<path d="M4585 2642 c-18 -12 -46 -85 -47 -122 -1 -20 4 -45 10 -57 10 -17 9
-25 -3 -37 -23 -22 -18 -36 13 -36 15 0 36 -7 46 -15 27 -20 59 -19 79 3 17
19 23 42 10 42 -3 0 -15 -7 -24 -16 -17 -15 -20 -15 -44 0 -25 17 -26 19 -10
39 47 65 61 160 27 190 -20 18 -41 21 -57 9z m38 -78 c-2 -21 -8 -51 -14 -67
-9 -22 -14 -25 -25 -16 -19 15 -18 63 2 100 21 41 40 32 37 -17z"/>
<path d="M820 2630 c-8 -5 -36 -10 -62 -10 -27 0 -48 -4 -48 -10 0 -11 77 -12
124 -1 17 3 29 11 28 16 -2 14 -24 17 -42 5z"/>
<path d="M2825 2630 c-4 -6 7 -10 25 -10 18 0 29 4 25 10 -3 6 -15 10 -25 10
-10 0 -22 -4 -25 -10z"/>
<path d="M2933 2613 c9 -2 25 -2 35 0 9 3 1 5 -18 5 -19 0 -27 -2 -17 -5z"/>
<path d="M3475 2610 c-8 -13 5 -13 25 0 13 8 13 10 -2 10 -9 0 -20 -4 -23 -10z"/>
<path d="M5100 2592 c0 -16 -8 -44 -17 -63 l-17 -34 -9 38 c-6 25 -15 37 -26
37 -15 0 -16 -9 -13 -66 4 -54 1 -71 -15 -92 -11 -15 -27 -42 -37 -59 -15 -30
-15 -36 -1 -63 11 -21 23 -30 40 -30 35 0 55 35 55 97 0 28 5 64 11 80 l10 28
33 -40 33 -39 29 18 c19 13 29 15 32 8 2 -7 10 -12 17 -12 9 0 16 19 20 58 3
31 8 69 10 84 2 15 -2 31 -10 38 -16 13 -21 6 -30 -45 -17 -93 -55 -126 -82
-70 -14 30 -15 41 -5 68 19 52 16 87 -8 87 -15 0 -20 -7 -20 -28z m-70 -229
c0 -38 -10 -73 -21 -73 -10 0 -12 60 -3 84 10 25 24 18 24 -11z"/>
<path d="M3197 2604 c-4 -4 -7 -12 -7 -18 0 -6 5 -4 10 4 8 13 10 13 10 -2 0
-9 -6 -19 -12 -21 -7 -3 -3 -6 10 -6 12 -1 22 3 22 7 0 15 -26 43 -33 36z"/>
<path d="M3127 2587 c-7 -18 3 -67 14 -67 5 0 9 6 10 13 0 6 4 3 9 -8 8 -18 9
-17 9 8 1 15 -3 27 -8 27 -5 0 -8 7 -7 16 1 21 -20 30 -27 11z"/>
<path d="M4813 2563 c-20 -3 -33 -10 -33 -19 0 -11 15 -14 64 -14 73 0 96 6
96 26 0 14 -48 17 -127 7z"/>
<path d="M938 2513 c-19 -5 -25 -23 -8 -23 6 0 10 -27 10 -60 0 -49 -3 -58
-15 -54 -9 4 -15 0 -15 -10 0 -12 10 -16 40 -16 22 0 40 5 40 10 0 6 -7 10
-15 10 -10 0 -15 10 -15 29 0 16 -3 42 -6 59 -6 27 -3 32 20 38 14 3 23 10 20
15 -5 9 -26 10 -56 2z"/>
<path d="M4762 2498 c-7 -7 -12 -16 -12 -20 0 -11 178 -10 185 1 15 25 -150
42 -173 19z"/>
<path d="M773 2438 c-13 -17 -43 -79 -43 -90 0 -19 18 -5 33 27 20 42 30 44
45 10 18 -38 15 -45 -18 -45 -16 0 -30 -4 -30 -10 0 -12 60 -13 79 -1 11 7 9
19 -12 65 -26 57 -37 66 -54 44z"/>
<path d="M1076 2429 c-14 -11 -26 -25 -26 -29 0 -15 58 -41 65 -30 3 6 -1 10
-9 10 -17 0 -39 34 -29 44 3 3 15 6 25 6 10 0 18 5 18 10 0 16 -15 12 -44 -11z"/>
<path d="M5266 2408 c-21 -30 -20 -50 5 -82 27 -35 55 -33 74 5 15 28 15 34 0
65 -19 41 -55 46 -79 12z m44 -49 c0 -11 -4 -17 -10 -14 -5 3 -10 15 -10 26 0
11 5 17 10 14 6 -3 10 -15 10 -26z"/>
<path d="M1875 2339 c-4 -5 -5 -10 -3 -10 16 -7 232 -28 237 -23 10 9 -56 24
-107 24 -32 0 -72 4 -89 9 -20 6 -35 6 -38 0z"/>
<path d="M3394 2304 c-23 -23 -34 -45 -34 -64 0 -34 -23 -50 -69 -50 -21 0
-31 -5 -31 -16 0 -12 8 -14 46 -8 l46 7 -7 -69 c-8 -71 -19 -104 -35 -104 -6
0 -10 -7 -10 -15 0 -21 39 -19 46 3 3 9 10 26 15 37 4 11 12 47 16 80 8 58 9
59 46 68 47 11 48 27 1 27 -36 0 -37 0 -31 36 10 59 62 100 62 48 0 -27 29
-24 33 4 9 59 -46 68 -94 16z"/>
<path d="M1643 2301 c-24 -32 -31 -53 -11 -33 18 18 28 15 28 -8 0 -10 -8 -24
-17 -29 -14 -8 -9 -10 25 -11 23 0 42 5 42 10 0 6 -9 10 -19 10 -16 0 -20 8
-23 46 l-3 46 -22 -31z"/>
<path d="M1760 2297 c0 -8 -6 -18 -12 -21 -10 -5 -10 -7 -1 -12 8 -3 10 -16 6
-35 -7 -36 4 -38 17 -4 13 35 30 31 30 -7 1 -25 3 -29 10 -17 12 20 2 59 -16
59 -7 0 -11 6 -8 13 3 8 -2 20 -11 27 -12 10 -15 10 -15 -3z"/>
<path d="M1842 2230 l0 -85 15 48 c15 51 33 63 33 22 0 -19 5 -25 21 -25 15 0
19 4 15 16 -4 9 -1 23 6 32 11 13 10 14 -10 8 -19 -6 -22 -4 -22 19 0 15 -4
24 -10 20 -5 -3 -10 1 -10 11 0 13 -3 14 -14 5 -11 -9 -15 -9 -19 1 -3 7 -5
-25 -5 -72z"/>
<path d="M903 2283 c-77 -2 -133 -8 -133 -13 0 -12 123 -13 298 -3 133 7 170
24 45 21 -43 -1 -138 -4 -210 -5z"/>
<path d="M1414 2266 c-3 -8 -4 -31 -2 -52 2 -30 8 -40 23 -42 16 -3 18 -1 8 9
-19 19 -16 27 10 32 l22 4 -22 8 c-26 8 -30 23 -8 31 22 9 18 24 -5 24 -11 0
-23 -6 -26 -14z"/>
<path d="M2896 2258 c-9 -12 -16 -32 -16 -43 1 -18 3 -17 26 9 55 63 52 -22
-4 -107 -14 -20 -23 -39 -21 -41 2 -2 29 -6 59 -10 41 -5 60 -3 75 8 25 18 14
31 -14 16 -19 -10 -47 -3 -70 16 -2 2 6 18 17 36 42 70 36 138 -13 138 -13 0
-31 -10 -39 -22z"/>
<path d="M1981 2233 c-18 -21 -42 -48 -53 -60 -14 -16 -16 -23 -7 -23 16 1
105 108 97 116 -3 2 -20 -12 -37 -33z"/>
<path d="M2244 2235 c-15 -23 -15 -29 -2 -63 13 -34 17 -37 54 -37 21 -1 49
-6 61 -13 33 -18 97 -15 116 6 30 33 16 112 -19 112 -12 0 -14 -5 -9 -17 20
-46 17 -71 -8 -88 -33 -21 -65 -6 -74 36 -7 35 -10 35 -39 8 -13 -12 -30 -19
-38 -16 -18 7 -22 62 -6 72 15 9 12 25 -5 25 -8 0 -22 -11 -31 -25z"/>
<path d="M1513 2243 c9 -2 25 -2 35 0 9 3 1 5 -18 5 -19 0 -27 -2 -17 -5z"/>
<path d="M3022 2238 c3 -7 20 -14 39 -16 l34 -3 -3 -60 c-4 -67 7 -90 33 -69
13 11 18 10 29 -5 7 -10 18 -15 24 -11 13 8 16 93 6 120 -10 25 -24 18 -24
-12 0 -16 -8 -32 -20 -40 -19 -11 -20 -10 -20 33 l0 45 38 0 c20 1 48 7 62 15
23 13 15 14 -88 15 -87 0 -113 -3 -110 -12z"/>
<path d="M5290 2231 c0 -5 -3 -18 -6 -28 -6 -16 -5 -16 9 2 16 20 16 20 17 -3
0 -13 4 -20 10 -17 6 3 10 17 10 31 0 17 -5 24 -20 24 -11 0 -20 -4 -20 -9z"/>
<path d="M1535 2220 c-3 -5 1 -10 10 -10 9 0 13 5 10 10 -3 6 -8 10 -10 10 -2
0 -7 -4 -10 -10z"/>
<path d="M4940 2210 c0 -5 5 -10 10 -10 6 0 10 5 10 10 0 6 -4 10 -10 10 -5 0
-10 -4 -10 -10z"/>
<path d="M5555 2210 c-3 -6 -4 -19 0 -29 4 -15 0 -21 -17 -24 -13 -2 -3 -5 21
-6 l44 -1 -21 23 c-29 31 -28 40 6 33 20 -5 23 -4 12 4 -19 13 -37 13 -45 0z"/>
<path d="M1990 2185 c0 -14 5 -25 10 -25 6 0 10 5 10 10 0 6 5 10 10 10 6 0
10 -7 10 -15 0 -8 2 -15 4 -15 2 0 11 -3 20 -6 12 -4 16 0 16 15 0 16 -10 26
-35 37 -45 18 -45 18 -45 -11z"/>
<path d="M2573 2198 c5 -17 112 -17 129 0 9 9 -3 12 -61 12 -54 0 -72 -3 -68
-12z"/>
<path d="M5368 2198 c7 -7 12 -22 12 -34 0 -17 5 -22 25 -20 29 1 31 8 10 30
-8 8 -15 19 -15 25 0 6 -10 11 -22 11 -17 0 -19 -3 -10 -12z"/>
<path d="M5438 2203 c6 -2 18 -2 25 0 6 3 1 5 -13 5 -14 0 -19 -2 -12 -5z"/>
<path d="M930 2190 c0 -5 7 -10 16 -10 11 0 14 -5 10 -16 -3 -9 -6 -36 -6 -60
0 -28 -4 -43 -10 -39 -5 3 -10 -1 -10 -9 0 -18 49 -23 65 -7 6 5 19 12 30 15
11 3 3 3 -17 0 l-38 -5 0 38 c0 66 9 83 41 83 16 0 29 5 29 10 0 6 -25 10 -55
10 -30 0 -55 -4 -55 -10z"/>
<path d="M1627 2177 c-4 -10 2 -13 19 -9 30 5 30 -5 2 -35 -23 -25 -23 -27 8
-37 18 -6 20 -2 18 36 0 24 -2 46 -3 51 -2 13 -39 8 -44 -6z"/>
<path d="M3800 2167 c-26 -13 -40 -37 -59 -99 -24 -76 29 -136 108 -122 89 16
97 46 10 37 -53 -5 -64 -4 -75 12 -21 28 -17 78 9 116 26 38 49 47 82 29 35
-19 49 -8 25 18 -23 25 -62 28 -100 9z"/>
<path d="M4908 2159 c-19 -14 -28 -30 -28 -50 0 -16 5 -29 10 -29 6 0 8 10 5
23 -4 16 0 29 14 41 21 19 21 19 21 -15 0 -19 -5 -40 -12 -47 -9 -9 -9 -12 0
-12 7 0 12 -10 13 -22 0 -23 0 -23 9 -2 4 12 15 24 24 27 9 4 16 14 15 24 0
11 -3 13 -6 6 -10 -26 -33 -13 -33 18 0 26 3 29 21 24 17 -6 20 -3 17 12 -5
25 -38 27 -70 2z"/>
<path d="M5620 2165 c0 -8 5 -15 10 -15 6 0 10 7 10 15 0 8 -4 15 -10 15 -5 0
-10 -7 -10 -15z"/>
<path d="M5670 2165 c-16 -20 -5 -32 14 -16 11 9 15 9 19 -1 3 -7 6 -3 6 10 1
25 -20 29 -39 7z"/>
<path d="M2635 2155 c-5 -2 -22 -6 -37 -9 -49 -11 -33 -29 20 -22 63 9 82 15
82 27 0 8 -43 11 -65 4z"/>
<path d="M5285 2152 c-3 -3 -5 -9 -5 -14 0 -11 47 -10 54 1 6 9 -40 22 -49 13z"/>
<path d="M4127 2128 c-6 -20 14 -35 33 -23 17 10 12 32 -9 38 -13 3 -21 -1
-24 -15z"/>
<path d="M1093 2122 c-6 -4 -13 -27 -15 -52 -3 -44 -2 -45 25 -43 16 1 35 7
43 14 13 10 12 14 -1 29 -8 9 -15 26 -15 38 0 22 -15 28 -37 14z m24 -78 c-9
-9 -28 6 -21 18 4 6 10 6 17 -1 6 -6 8 -13 4 -17z"/>
<path d="M5128 2113 c12 -2 30 -2 40 0 9 3 -1 5 -23 4 -22 0 -30 -2 -17 -4z"/>
<path d="M5345 2100 c3 -5 30 -10 60 -10 30 0 57 5 60 10 4 6 -18 10 -60 10
-42 0 -64 -4 -60 -10z"/>
<path d="M5130 2090 c0 -5 11 -10 25 -10 14 0 25 5 25 10 0 6 -11 10 -25 10
-14 0 -25 -4 -25 -10z"/>
<path d="M4095 2071 c-3 -6 -11 -9 -16 -6 -5 4 -9 -26 -8 -72 0 -64 2 -73 11
-51 5 15 25 43 44 62 20 20 34 43 33 58 0 15 -3 18 -6 8 -9 -24 -44 -70 -53
-70 -5 0 -4 16 2 36 9 36 6 55 -7 35z"/>
<path d="M4809 2066 c11 -14 9 -23 -17 -63 l-31 -47 20 -38 20 -38 -23 -9
c-21 -8 -21 -10 -5 -16 22 -9 59 21 41 33 -15 10 -34 70 -28 87 9 22 23 18 33
-7 5 -13 10 -17 15 -10 4 6 1 20 -6 31 -11 18 -10 23 7 35 16 12 18 18 9 33
-6 10 -20 20 -30 22 -16 3 -17 1 -5 -13z"/>
<path d="M4030 2049 c-16 -30 -8 -31 13 -3 10 13 13 24 8 24 -6 0 -15 -9 -21
-21z"/>
<path d="M4406 2048 c-22 -31 -21 -61 0 -33 8 11 20 19 25 18 5 -2 9 6 9 17 0
26 -15 25 -34 -2z"/>
<path d="M5552 2054 c17 -17 17 -19 -10 -47 l-27 -30 28 18 c27 18 28 17 43
-4 8 -11 23 -20 32 -20 15 1 15 2 0 6 -11 3 -18 14 -18 27 0 22 -18 44 -50 61
-11 6 -10 3 2 -11z"/>
<path d="M4461 2021 c-12 -22 -21 -51 -21 -65 0 -50 -22 -126 -36 -126 -8 0
-14 5 -14 11 0 5 -4 8 -9 5 -5 -4 -12 0 -14 6 -4 10 -8 9 -16 -2 -9 -13 -12
-12 -17 8 -8 27 -24 29 -24 3 0 -25 25 -45 47 -37 9 4 20 1 24 -6 14 -22 43 5
54 50 6 22 13 44 18 48 4 4 7 22 7 40 0 39 9 66 20 59 4 -3 13 1 19 9 8 10 8
16 -3 25 -12 10 -18 6 -35 -28z"/>
<path d="M4600 2045 c0 -10 -12 -15 -37 -17 -37 -1 -37 -1 -5 -5 17 -2 32 -9
32 -15 0 -6 6 -6 15 2 17 14 20 50 5 50 -5 0 -10 -7 -10 -15z"/>
<path d="M5100 1992 c0 -4 -18 -30 -41 -57 -24 -28 -36 -51 -29 -53 6 -2 17 4
24 13 17 23 53 12 59 -18 2 -12 5 11 6 51 0 42 -3 72 -9 72 -5 0 -10 -3 -10
-8z m10 -57 c0 -8 -7 -15 -15 -15 -9 0 -12 6 -9 15 4 8 10 15 15 15 5 0 9 -7
9 -15z"/>
<path d="M3650 1963 c-15 -20 -20 -38 -18 -67 2 -33 -1 -42 -19 -52 -13 -6
-20 -13 -17 -17 3 -3 14 -1 25 6 14 9 22 8 37 -6 18 -17 20 -16 44 8 l26 25 6
-26 c5 -18 11 -24 23 -20 8 4 21 2 28 -4 16 -14 28 2 19 25 -5 11 -15 15 -30
12 -18 -3 -24 0 -24 14 0 24 -12 24 -35 -1 -10 -11 -24 -20 -30 -20 -20 0 -27
31 -12 49 8 9 17 23 21 31 4 8 -4 2 -18 -15 l-26 -30 0 27 c0 41 20 77 38 71
10 -4 13 -2 8 5 -11 18 -23 14 -46 -15z"/>
<path d="M4228 1983 c12 -2 30 -2 40 0 9 3 -1 5 -23 4 -22 0 -30 -2 -17 -4z"/>
<path d="M4382 1965 c0 -16 2 -22 5 -12 2 9 2 23 0 30 -3 6 -5 -1 -5 -18z"/>
<path d="M4544 1977 c26 -19 19 -89 -11 -102 -30 -13 -29 -25 2 -25 14 0 39
13 56 28 27 24 30 33 25 59 -7 30 -39 53 -73 53 -15 0 -15 -1 1 -13z m56 -32
c10 -12 9 -20 -4 -40 -23 -36 -32 -31 -28 15 4 43 12 49 32 25z"/>
<path d="M4710 1969 c0 -15 -5 -19 -16 -15 -9 3 -24 -4 -38 -19 -20 -22 -22
-29 -12 -50 14 -31 30 -32 50 -3 9 12 16 17 16 10 0 -6 5 -12 10 -12 6 0 10
25 10 55 0 30 -4 55 -10 55 -5 0 -10 -9 -10 -21z m-10 -40 c0 -17 -20 -49 -31
-49 -16 0 -22 29 -9 45 14 17 40 20 40 4z"/>
<path d="M5172 1978 c-13 -88 -14 -100 -3 -94 6 4 11 19 11 34 0 15 4 34 10
42 7 12 12 11 30 -5 34 -31 23 -65 -32 -94 -48 -25 -57 -38 -19 -26 44 14 81
55 81 91 0 29 -5 36 -36 49 -44 18 -40 18 -42 3z"/>
<path d="M1170 1929 c-47 -41 -43 -55 5 -17 l28 22 -5 -42 c-4 -23 -2 -44 2
-47 11 -7 23 52 18 92 l-3 31 -45 -39z"/>
<path d="M4230 1950 c0 -5 7 -10 15 -10 8 0 15 5 15 10 0 6 -7 10 -15 10 -8 0
-15 -4 -15 -10z"/>
<path d="M1809 1926 c15 -18 -1 -30 -32 -23 -12 3 -31 1 -42 -3 -16 -7 -12 -9
18 -9 41 -1 47 -10 17 -29 -28 -17 -25 -51 7 -84 22 -23 24 -30 13 -43 -14
-17 -40 -20 -40 -5 0 6 -4 10 -10 10 -5 0 -10 -9 -10 -20 0 -30 50 -27 80 5
l24 25 -40 41 c-32 33 -36 41 -24 49 8 6 27 7 43 4 20 -4 27 -2 27 10 0 9 6
25 13 37 10 17 9 22 -7 35 -27 19 -53 19 -37 0z"/>
<path d="M3308 1929 c-10 -5 -18 -15 -18 -21 0 -6 9 -3 21 8 17 16 22 16 29 4
6 -8 10 -19 10 -23 0 -5 5 -5 11 -2 7 5 4 14 -7 26 -20 22 -22 22 -46 8z"/>
<path d="M4862 1916 c10 -7 15 -16 11 -19 -3 -4 16 -7 43 -6 27 0 43 3 36 6
-10 4 -10 8 -1 19 10 12 2 14 -47 14 -51 -1 -57 -2 -42 -14z"/>
<path d="M4363 1904 c-3 -8 -1 -20 6 -27 8 -8 11 -4 11 16 0 30 -7 35 -17 11z"/>
<path d="M4062 1875 c0 -16 2 -22 5 -12 2 9 2 23 0 30 -3 6 -5 -1 -5 -18z"/>
<path d="M5510 1817 c12 -81 32 -88 60 -21 19 44 19 64 -1 64 -5 0 -9 -13 -9
-28 0 -42 -12 -47 -24 -10 -17 49 -34 47 -26 -5z"/>
<path d="M2266 1813 c-22 -20 -31 -33 -20 -29 10 4 25 10 32 13 8 4 12 -6 12
-28 1 -24 3 -29 9 -19 11 20 21 100 13 100 -4 0 -25 -17 -46 -37z"/>
<path d="M3332 1825 c-46 -32 -51 -38 -19 -26 38 15 37 15 37 -21 0 -23 3 -29
11 -21 5 5 9 28 7 51 l-3 40 -33 -23z"/>
<path d="M3428 1833 c7 -3 16 -2 19 1 4 3 -2 6 -13 5 -11 0 -14 -3 -6 -6z"/>
<path d="M3870 1825 c-7 -9 -10 -19 -6 -22 4 -4 11 -1 15 6 5 7 15 11 22 9 9
-3 7 -10 -9 -26 -12 -12 -22 -24 -22 -27 0 -3 19 -5 43 -4 36 0 39 2 19 9 -19
8 -21 13 -12 30 6 11 8 25 5 30 -9 15 -41 12 -55 -5z"/>
<path d="M1115 1820 c-4 -6 32 -10 102 -10 73 0 103 3 93 10 -20 13 -187 13
-195 0z"/>
<path d="M1003 1803 c9 -2 25 -2 35 0 9 3 1 5 -18 5 -19 0 -27 -2 -17 -5z"/>
<path d="M1371 1806 c9 -8 259 -13 259 -5 0 5 -59 9 -132 9 -72 0 -129 -2
-127 -4z"/>
<path d="M2787 1793 c6 -14 0 -15 -40 -10 -27 4 -47 3 -47 -3 0 -5 21 -12 48
-16 26 -4 50 -11 54 -17 7 -12 58 17 58 33 0 13 -34 30 -59 30 -15 0 -19 -4
-14 -17z"/>
<path d="M1997 1794 c-11 -12 3 -24 27 -24 13 0 29 7 36 15 11 13 7 15 -22 15
-19 0 -38 -3 -41 -6z"/>
<path d="M2562 1775 c-25 -21 -30 -34 -35 -87 -7 -71 3 -129 27 -153 20 -20
21 -6 1 21 -10 13 -14 44 -15 95 0 67 3 79 25 103 13 14 29 26 35 26 5 0 10 5
10 10 0 17 -17 11 -48 -15z"/>
<path d="M3440 1790 c19 -13 30 -13 30 0 0 6 -10 10 -22 10 -19 0 -20 -2 -8
-10z"/>
<path d="M1326 1782 c-4 -3 -7 -21 -7 -41 -2 -30 -3 -32 -6 -8 -2 15 -9 27
-15 27 -5 0 -8 -7 -5 -15 4 -8 9 -48 13 -89 4 -42 11 -73 15 -70 5 3 9 17 9
31 0 25 1 25 18 10 10 -10 32 -17 48 -16 16 0 22 3 14 6 -64 20 -73 41 -40 83
17 21 21 23 30 10 7 -11 12 -12 21 -3 6 6 8 16 5 22 -12 19 -44 12 -65 -15
l-21 -27 0 38 0 38 105 -5 c58 -3 105 -2 105 3 0 5 -10 11 -22 13 -38 8 -197
14 -202 8z"/>
<path d="M3120 1780 c0 -5 8 -14 18 -20 13 -9 2 -10 -48 -6 l-65 6 25 -20 c20
-16 22 -20 7 -20 -15 0 -16 -6 -10 -42 5 -24 7 -69 7 -101 l-2 -58 47 7 c25 4
52 11 59 16 20 16 14 47 -14 73 -21 19 -24 27 -15 44 6 11 8 27 5 35 -4 10 -1
16 8 16 15 0 48 30 48 43 0 6 -54 37 -65 37 -3 0 -5 -4 -5 -10z m18 -61 c-12
-7 -24 -7 -35 0 -15 9 -12 10 17 10 29 0 32 -1 18 -10z m-38 -59 c-22 -14 -30
-12 -30 8 0 28 12 34 29 17 14 -14 14 -17 1 -25z m26 -71 c16 -17 16 -22 4
-30 -27 -17 -55 -6 -58 24 -3 21 1 27 16 27 10 0 27 -9 38 -21z"/>
<path d="M4327 1783 c-11 -11 -8 -25 4 -17 6 3 15 0 20 -7 10 -17 23 -5 16 16
-7 15 -28 20 -40 8z"/>
<path d="M1073 1763 c-23 -15 -32 -53 -13 -53 6 0 10 9 10 19 0 28 21 37 37
16 18 -25 18 -26 -22 -72 -19 -22 -31 -43 -28 -47 3 -3 22 -5 42 -5 21 1 28 3
16 6 -35 8 -37 20 -11 46 30 30 34 67 9 89 -16 14 -20 14 -40 1z"/>
<path d="M3620 1749 c30 -4 105 -13 165 -18 61 -6 134 -13 163 -16 39 -4 52
-2 52 8 0 10 -41 16 -167 25 -93 7 -190 12 -218 11 l-50 -2 55 -8z"/>
<path d="M4788 1750 c0 -3 -2 -17 -2 -32 -1 -23 2 -27 24 -26 14 1 32 0 40 -3
10 -3 14 2 12 14 -2 9 2 17 8 17 19 0 10 18 -12 25 -30 9 -68 12 -70 5z"/>
<path d="M4956 1749 c-69 -11 -83 -29 -23 -29 l46 0 3 -77 c2 -53 7 -78 16
-81 11 -3 13 13 11 79 l-4 84 27 3 c15 2 32 10 38 18 11 12 6 14 -26 13 -22
-1 -61 -5 -88 -10z"/>
<path d="M1990 1742 c0 -13 25 -22 57 -22 15 0 23 5 21 13 -5 14 -78 23 -78 9z"/>
<path d="M3275 1704 c20 -37 25 -62 25 -114 0 -59 -4 -72 -30 -108 -32 -45
-35 -52 -21 -52 5 0 26 22 46 50 33 45 36 55 36 115 0 72 -31 147 -64 153 -15
3 -14 -3 8 -44z"/>
<path d="M4310 1742 c0 -7 5 -22 10 -33 9 -16 7 -19 -10 -19 -11 0 -20 -4 -20
-10 0 -5 11 -10 25 -10 19 0 25 5 25 23 0 24 -29 72 -30 49z"/>
<path d="M5233 1739 c-17 -17 -17 -131 -1 -147 18 -18 63 -14 89 7 23 19 23
21 9 48 -9 16 -29 32 -47 37 -25 8 -33 16 -35 39 -2 23 -5 26 -15 16z m75
-105 c3 -23 -18 -37 -43 -28 -16 6 -20 35 -8 48 14 14 48 1 51 -20z"/>
<path d="M2670 1729 c0 -2 -1 -46 -3 -96 -2 -103 -2 -103 64 -103 29 0 39 4
39 16 0 8 -5 12 -10 9 -6 -4 -24 -4 -40 0 -26 6 -30 11 -30 41 0 28 4 33 19
31 28 -3 31 17 4 21 -17 3 -23 10 -23 28 0 21 5 24 34 24 19 0 38 5 41 10 4 6
-6 10 -22 10 -15 0 -38 3 -50 6 -13 4 -23 5 -23 3z"/>
<path d="M1471 1706 c-7 -8 -11 -36 -9 -63 3 -42 6 -48 27 -51 35 -5 48 14 15
22 -26 7 -26 9 -21 57 7 53 5 56 -12 35z"/>
<path d="M4705 1705 c10 -23 11 -76 1 -120 l-7 -30 21 24 c18 21 23 22 31 10
5 -7 9 -17 9 -21 0 -5 5 -8 10 -8 28 0 -15 126 -51 150 -22 14 -23 14 -14 -5z"/>
<path d="M1156 1702 c-3 -6 -2 -13 4 -17 5 -3 10 -18 10 -31 0 -16 5 -24 13
-21 6 2 11 14 9 25 -2 12 1 22 7 22 5 0 12 -15 14 -32 l4 -33 1 33 c2 25 6 32
22 32 11 0 20 5 20 10 0 6 -12 10 -27 10 -16 0 -38 3 -49 6 -12 3 -25 1 -28
-4z"/>
<path d="M2170 1691 c0 -8 94 -21 161 -21 69 0 41 17 -38 24 -101 8 -123 8
-123 -3z"/>
<path d="M3672 1688 c3 -7 21 -14 41 -16 l36 -3 -4 -72 -4 -72 12 70 c12 68
13 70 40 67 15 -1 27 2 27 8 0 14 -12 17 -89 25 -50 5 -62 3 -59 -7z"/>
<path d="M4354 1673 c4 -40 33 -42 34 -3 0 23 -4 30 -18 30 -14 0 -18 -6 -16
-27z"/>
<path d="M5075 1676 c-19 -14 -16 -15 38 -16 43 0 58 3 55 13 -7 18 -70 20
-93 3z"/>
<path d="M2860 1652 c0 -5 9 -17 20 -27 19 -17 19 -20 4 -44 -17 -26 -17 -26
3 -8 25 22 36 22 58 -3 17 -18 45 -28 45 -15 0 3 -12 17 -27 30 -23 19 -26 26
-15 36 21 22 13 32 -12 16 -22 -15 -25 -15 -41 3 -19 21 -35 26 -35 12z"/>
<path d="M5087 1643 c-16 -15 -5 -23 33 -23 29 0 40 4 40 15 0 10 -10 15 -33
15 -19 0 -37 -3 -40 -7z"/>
<path d="M2229 1603 c-13 -32 -29 -44 -29 -23 0 6 -4 10 -9 10 -4 0 -12 -21
-15 -47 -13 -90 -13 -98 9 -98 16 0 21 8 23 35 1 19 5 46 8 59 l5 24 24 -23
c17 -16 31 -21 49 -16 27 7 66 -18 66 -41 0 -7 8 -17 18 -22 24 -13 52 4 52
33 0 25 -17 36 -55 36 -18 0 -25 8 -32 38 l-10 37 -18 -37 c-10 -21 -22 -38
-26 -38 -14 0 -33 32 -39 68 l-7 37 -14 -32z m174 -102 c5 -22 -1 -33 -14 -25
-12 7 -12 44 0 44 5 0 11 -9 14 -19z"/>
<path d="M4052 1618 c-7 -7 -12 -18 -12 -26 0 -11 -3 -12 -14 -3 -11 9 -15 8
-20 -4 -3 -10 1 -18 12 -22 9 -4 22 -13 28 -21 8 -11 16 -7 43 23 18 20 30 40
26 43 -3 3 -17 -7 -30 -23 -18 -22 -24 -26 -25 -13 0 9 7 23 15 32 8 8 15 17
15 20 0 11 -26 6 -38 -6z"/>
<path d="M4480 1548 c-6 -24 -19 -49 -28 -55 -13 -11 -10 -13 23 -13 33 0 36
2 22 13 -15 10 -16 16 -5 45 7 17 19 32 28 32 13 0 13 1 0 10 -24 16 -29 12
-40 -32z"/>
<path d="M4238 1573 c7 -3 16 -2 19 1 4 3 -2 6 -13 5 -11 0 -14 -3 -6 -6z"/>
<path d="M4307 1573 c-12 -12 -7 -50 8 -63 13 -11 19 -8 40 14 14 15 25 32 25
39 0 7 -10 0 -21 -15 -27 -37 -42 -36 -37 2 4 29 -1 37 -15 23z"/>
<path d="M4584 1548 c-30 -35 -25 -63 11 -65 20 -1 23 0 8 4 -13 2 -23 9 -23
14 0 5 10 14 23 19 12 5 16 9 8 9 -8 1 -11 8 -8 21 6 25 5 25 -19 -2z"/>
<path d="M4200 1550 c0 -5 5 -10 10 -10 6 0 10 5 10 10 0 6 -4 10 -10 10 -5 0
-10 -4 -10 -10z"/>
<path d="M4101 1515 c-26 -26 -21 -45 12 -44 21 0 21 1 2 9 -18 8 -19 9 -1 9
11 1 16 6 13 15 -3 7 0 19 6 25 6 6 7 11 2 10 -6 0 -21 -11 -34 -24z"/>
<path d="M4373 1502 c-28 -22 -15 -62 19 -61 l23 0 -23 10 c-30 11 -23 35 9
32 22 -2 22 -2 4 6 -17 8 -18 10 -2 10 9 1 17 6 17 11 0 15 -23 12 -47 -8z"/>
<path d="M4675 1466 c18 -13 17 -14 -7 -30 -14 -9 -30 -27 -36 -41 -10 -21 -8
-29 15 -56 21 -25 24 -32 12 -39 -11 -7 -10 -10 4 -16 9 -3 25 -3 34 0 15 6
15 8 3 16 -8 5 -12 10 -10 12 3 2 14 8 25 14 30 16 32 70 4 100 -18 19 -20 26
-9 39 11 13 8 15 -21 15 -30 0 -31 -1 -14 -14z m1 -72 c-3 -9 -6 -22 -6 -30 0
-8 -4 -14 -10 -14 -11 0 -14 43 -3 53 12 13 25 7 19 -9z m44 -19 c0 -13 -5
-27 -11 -30 -15 -10 -17 -4 -12 32 6 37 23 35 23 -2z"/>
<path d="M4998 1430 c28 -12 30 -34 2 -25 -18 6 -20 2 -20 -35 0 -47 18 -60
56 -40 28 16 32 46 5 55 -13 4 -17 12 -13 30 4 22 1 25 -24 24 -27 0 -28 -1
-6 -9z m37 -70 c0 -8 -8 -16 -17 -18 -13 -2 -18 3 -18 18 0 15 5 20 18 18 9
-2 17 -10 17 -18z"/>
<path d="M5070 1417 c0 -13 11 -34 25 -47 14 -13 25 -27 25 -32 0 -5 -11 -6
-25 -2 -25 6 -35 -9 -14 -21 16 -10 59 4 59 18 0 8 -11 24 -25 37 -25 24 -33
50 -15 50 6 0 10 5 10 10 0 6 -9 10 -20 10 -14 0 -20 -7 -20 -23z"/>
<path d="M4882 1373 c1 -36 3 -45 5 -25 5 40 18 41 38 2 22 -43 35 -37 35 15
0 46 -16 63 -22 23 -3 -21 -4 -21 -23 10 -10 17 -23 32 -27 32 -4 0 -7 -26 -6
-57z"/>
<path d="M3521 1392 c-26 -21 -32 -33 -29 -56 4 -39 26 -45 34 -9 8 34 32 63
51 63 8 0 30 -12 49 -26 50 -39 48 -85 -7 -148 -47 -53 -47 -82 -1 -73 15 3
41 9 57 12 17 3 40 8 53 11 14 3 22 12 22 25 0 18 -4 20 -45 13 -51 -7 -54 -3
-25 33 36 46 20 118 -36 162 -37 29 -83 27 -123 -7z"/>
<path d="M4761 1367 c-15 -19 -4 -27 33 -26 17 0 26 3 19 5 -7 3 -9 12 -6 20
7 18 -30 19 -46 1z"/>
<path d="M1603 1318 c-18 -8 -20 -16 -16 -44 4 -27 2 -34 -11 -34 -18 0 -22
-15 -6 -25 6 -3 10 -24 10 -46 0 -53 23 -48 30 7 4 34 9 39 33 42 15 2 27 9
27 17 0 11 -8 13 -32 8 -29 -6 -31 -5 -25 18 4 13 7 27 7 32 0 4 23 7 51 7 45
0 50 2 39 15 -14 17 -74 19 -107 3z"/>
<path d="M2133 1288 c-4 -7 -8 -117 -8 -245 l0 -232 37 -6 c52 -9 166 4 208
24 l35 16 -107 3 -108 3 0 44 c0 24 -5 56 -10 71 -20 53 1 68 111 79 9 1 21 5
28 9 26 17 6 25 -66 28 l-78 3 0 80 0 79 45 9 c25 4 71 6 102 4 44 -4 58 -2
62 10 3 8 4 19 0 24 -9 15 -241 11 -251 -3z"/>
<path d="M3972 1217 c-23 -25 -29 -47 -12 -47 6 0 10 6 10 13 0 6 5 19 10 27
8 13 11 12 24 -5 13 -17 15 -17 16 -4 0 9 -6 22 -13 28 -11 8 -19 5 -35 -12z"/>
<path d="M4487 1233 c-4 -3 -7 -20 -7 -37 0 -27 -1 -28 -13 -12 -13 17 -14 17
-28 0 -7 -10 -9 -15 -2 -11 9 6 11 -10 10 -57 -1 -35 -5 -62 -8 -60 -3 2 -9
-31 -13 -73 -3 -43 -11 -82 -16 -87 -13 -13 -13 -46 -1 -46 5 0 15 26 21 58
19 88 22 92 85 92 30 0 55 5 55 10 0 6 -24 10 -54 10 l-53 0 14 73 c28 143 17
127 90 127 40 0 62 4 58 10 -7 11 -128 14 -138 3z"/>
<path d="M1692 1203 c-28 -51 -6 -89 32 -54 30 28 36 27 37 -11 0 -26 2 -29 8
-14 16 40 -8 91 -32 67 -17 -17 -25 -13 -29 12 l-3 22 -13 -22z"/>
<path d="M4252 1194 c-25 -17 -30 -39 -7 -30 10 4 15 -1 15 -14 0 -31 17 -23
24 11 11 56 6 60 -32 33z"/>
<path d="M4516 1177 c-5 -10 -6 -31 -2 -47 4 -23 1 -32 -14 -40 -24 -13 -28
-60 -5 -60 8 0 21 15 29 34 8 19 22 39 33 45 10 6 12 11 6 11 -9 0 -10 7 -3
24 9 24 5 36 -12 36 -5 0 -7 -4 -3 -9 3 -5 1 -12 -4 -15 -5 -4 -11 4 -14 16
-3 20 -4 21 -11 5z m-2 -112 c-4 -8 -8 -15 -10 -15 -2 0 -4 7 -4 15 0 8 4 15
10 15 5 0 7 -7 4 -15z"/>
<path d="M2824 1145 c-4 -10 -2 -45 4 -79 6 -33 14 -96 18 -138 5 -63 9 -78
23 -78 12 0 23 22 41 77 23 73 54 122 68 108 3 -3 9 -40 12 -83 4 -69 7 -77
25 -75 11 1 29 13 40 28 52 68 83 98 93 91 7 -4 12 -33 12 -72 0 -57 2 -64 20
-64 21 0 26 19 21 93 -2 33 -35 107 -47 107 -3 0 -27 -21 -54 -46 -49 -46 -70
-50 -70 -13 0 64 -69 91 -116 44 -31 -31 -34 -31 -34 -1 0 14 -11 46 -25 72
-20 37 -26 43 -31 29z"/>
<path d="M3940 1145 c0 -8 -6 -15 -12 -15 -7 0 -5 -5 5 -11 11 -7 23 -7 35 0
9 6 11 11 5 11 -7 0 -13 7 -13 15 0 8 -4 15 -10 15 -5 0 -10 -7 -10 -15z"/>
<path d="M2473 1143 c-7 -2 -13 -10 -13 -17 0 -15 239 -30 253 -17 24 24 -191
54 -240 34z"/>
<path d="M4083 1113 c9 -2 23 -2 30 0 6 3 -1 5 -18 5 -16 0 -22 -2 -12 -5z"/>
<path d="M3382 1071 c-42 -43 -74 -124 -65 -163 16 -64 101 -97 165 -62 18 10
43 27 56 38 23 20 30 46 12 46 -5 0 -10 -4 -10 -10 0 -17 -58 -40 -103 -40
-33 0 -49 6 -65 23 -12 13 -22 29 -22 36 0 16 38 91 58 114 19 22 44 23 35 1
-4 -12 0 -15 17 -12 32 4 48 32 31 52 -24 29 -68 20 -109 -23z"/>
<path d="M4180 1100 c0 -6 38 -10 94 -10 53 0 98 4 101 10 4 6 -30 10 -94 10
-61 0 -101 -4 -101 -10z"/>
<path d="M4730 1096 c0 -16 37 -32 48 -21 7 7 -25 35 -40 35 -4 0 -8 -6 -8
-14z"/>
<path d="M4925 1090 c-3 -5 3 -10 15 -10 12 0 18 5 15 10 -3 6 -10 10 -15 10
-5 0 -12 -4 -15 -10z"/>
<path d="M3929 1055 c-3 -27 -9 -40 -19 -40 -10 0 -14 8 -13 23 3 27 -13 29
-20 2 -5 -20 15 -50 33 -50 16 0 31 40 28 73 -4 31 -4 30 -9 -8z"/>
<path d="M4088 1073 c6 -2 18 -2 25 0 6 3 1 5 -13 5 -14 0 -19 -2 -12 -5z"/>
<path d="M4678 1073 c7 -3 16 -2 19 1 4 3 -2 6 -13 5 -11 0 -14 -3 -6 -6z"/>
<path d="M3976 1063 c-10 -10 -7 -38 6 -51 13 -13 38 2 38 24 0 15 -34 36 -44
27z"/>
<path d="M4196 1038 c-8 -12 -13 -25 -10 -30 8 -12 24 0 24 18 0 8 7 14 15 14
21 0 19 -14 -10 -60 -14 -22 -25 -41 -25 -43 0 -2 17 -1 37 1 31 4 34 6 20 17
-14 10 -15 17 -5 43 9 24 9 34 -1 46 -18 21 -27 20 -45 -6z"/>
<path d="M2515 1028 c-66 -10 -85 -22 -68 -39 12 -12 171 6 206 23 53 27 -18
35 -138 16z"/>
<path d="M4284 1015 c3 -11 6 -31 7 -45 1 -21 3 -19 8 8 3 18 11 32 16 32 9
-1 9 -12 2 -54 -1 -5 4 -11 11 -13 8 -3 12 8 12 35 0 30 4 42 18 44 9 3 -5 6
-31 9 -44 4 -48 3 -43 -16z"/>
<path d="M4667 1008 c1 -18 2 -41 2 -50 1 -24 21 -23 21 1 0 11 6 22 13 24 10
4 10 6 0 6 -7 1 -13 10 -13 20 0 11 6 22 13 24 6 3 1 6 -13 6 -22 1 -25 -3
-23 -31z"/>
<path d="M4513 973 c-3 -10 -13 -26 -21 -36 -14 -16 -14 -20 6 -39 18 -19 25
-20 48 -9 15 6 24 14 21 17 -3 3 -15 1 -26 -6 -19 -9 -21 -8 -21 13 0 14 7 30
15 37 8 7 15 19 15 26 0 20 -30 17 -37 -3z"/>
<path d="M4163 873 c-3 -10 -15 -25 -26 -34 -20 -17 -20 -17 3 -24 21 -7 22
-11 17 -56 -7 -61 -1 -84 19 -68 8 6 14 19 14 29 0 10 7 24 17 31 15 13 16 10
10 -28 -6 -34 -4 -43 7 -43 19 0 33 67 19 89 -6 9 -20 15 -32 14 -23 -3 -30
24 -11 43 7 7 6 19 -2 37 -15 31 -26 34 -35 10z"/>
<path d="M3855 867 c-15 -9 -21 -24 -22 -62 -1 -27 -4 -68 -5 -90 -3 -40 -3
-40 35 -43 42 -4 51 14 11 24 -20 5 -24 12 -22 33 2 21 9 27 36 29 39 4 45 32
7 32 -15 0 -25 6 -25 14 0 8 -3 21 -6 30 -4 11 3 15 32 18 48 4 59 28 12 28
-18 -1 -42 -6 -53 -13z"/>
<path d="M4018 793 c-33 -9 -18 -23 23 -23 28 0 39 4 37 13 -5 13 -32 18 -60
10z"/>
<path d="M3993 748 c2 -7 19 -13 37 -13 18 0 35 6 38 13 2 8 -9 12 -38 12 -29
0 -40 -4 -37 -12z"/>
<path d="M3047 723 c-12 -11 -8 -23 8 -23 9 0 18 -7 21 -15 8 -20 24 -9 24 17
0 15 -4 18 -17 14 -9 -4 -19 -2 -23 4 -3 6 -9 7 -13 3z"/>
<path d="M2566 689 c-8 -42 -6 -71 3 -39 5 16 13 24 24 22 20 -3 21 2 7 29
-15 28 -27 24 -34 -12z"/>
<path d="M2626 688 c-19 -37 -19 -38 -6 -38 6 0 10 7 10 16 0 10 6 14 15 10
11 -4 15 1 15 19 0 34 -15 31 -34 -7z"/>
<path d="M2968 709 c-10 -7 -10 -9 0 -9 8 0 13 -17 14 -47 l1 -48 6 44 c4 32
12 46 26 51 17 6 17 7 -7 12 -15 3 -33 1 -40 -3z"/>
<path d="M2857 673 c-4 -3 -7 -18 -7 -31 0 -14 3 -22 7 -18 4 4 8 15 8 23 0 9
8 17 18 19 29 4 33 14 5 14 -13 0 -28 -3 -31 -7z"/>
<path d="M2690 649 c0 -6 -7 -9 -15 -5 -9 3 -15 0 -15 -9 0 -8 2 -15 4 -15 2
0 11 -3 20 -6 11 -4 16 -1 16 11 0 9 5 13 10 10 6 -3 10 1 10 9 0 9 -7 16 -15
16 -8 0 -15 -5 -15 -11z"/>
<path d="M2887 630 c-3 -11 -1 -20 4 -20 5 0 9 9 9 20 0 11 -2 20 -4 20 -2 0
-6 -9 -9 -20z"/>
<path d="M2778 623 c6 -2 18 -2 25 0 6 3 1 5 -13 5 -14 0 -19 -2 -12 -5z"/>
</g>
</svg>
